<svg width="21" height="21" viewBox="0 0 21 21" fill="none" xmlns="http://www.w3.org/2000/svg">
<path fill-rule="evenodd" clip-rule="evenodd" d="M10.5 0.5C10.7652 0.5 11.0196 0.605357 11.2071 0.792893C11.3946 0.98043 11.5 1.23478 11.5 1.5V2.5C11.5 2.76522 11.3946 3.01957 11.2071 3.20711C11.0196 3.39464 10.7652 3.5 10.5 3.5C10.2348 3.5 9.98043 3.39464 9.79289 3.20711C9.60536 3.01957 9.5 2.76522 9.5 2.5V1.5C9.5 1.23478 9.60536 0.98043 9.79289 0.792893C9.98043 0.605357 10.2348 0.5 10.5 0.5ZM0.5 10.5C0.5 10.2348 0.605357 9.98043 0.792893 9.79289C0.98043 9.60536 1.23478 9.5 1.5 9.5H2.5C2.76522 9.5 3.01957 9.60536 3.20711 9.79289C3.39464 9.98043 3.5 10.2348 3.5 10.5C3.5 10.7652 3.39464 11.0196 3.20711 11.2071C3.01957 11.3946 2.76522 11.5 2.5 11.5H1.5C1.23478 11.5 0.98043 11.3946 0.792893 11.2071C0.605357 11.0196 0.5 10.7652 0.5 10.5ZM17.5 10.5C17.5 10.2348 17.6054 9.98043 17.7929 9.79289C17.9804 9.60536 18.2348 9.5 18.5 9.5H19.5C19.7652 9.5 20.0196 9.60536 20.2071 9.79289C20.3946 9.98043 20.5 10.2348 20.5 10.5C20.5 10.7652 20.3946 11.0196 20.2071 11.2071C20.0196 11.3946 19.7652 11.5 19.5 11.5H18.5C18.2348 11.5 17.9804 11.3946 17.7929 11.2071C17.6054 11.0196 17.5 10.7652 17.5 10.5ZM11.5 18.5C11.5 18.2348 11.3946 17.9804 11.2071 17.7929C11.0196 17.6054 10.7652 17.5 10.5 17.5C10.2348 17.5 9.98043 17.6054 9.79289 17.7929C9.60536 17.9804 9.5 18.2348 9.5 18.5V19.5C9.5 19.7652 9.60536 20.0196 9.79289 20.2071C9.98043 20.3946 10.2348 20.5 10.5 20.5C10.7652 20.5 11.0196 20.3946 11.2071 20.2071C11.3946 20.0196 11.5 19.7652 11.5 19.5V18.5ZM16.864 15.45C16.7718 15.3545 16.6614 15.2783 16.5394 15.2259C16.4174 15.1735 16.2862 15.1459 16.1534 15.1447C16.0206 15.1436 15.8889 15.1689 15.766 15.2192C15.6432 15.2695 15.5315 15.3437 15.4376 15.4376C15.3437 15.5315 15.2695 15.6432 15.2192 15.766C15.1689 15.8889 15.1436 16.0206 15.1447 16.1534C15.1459 16.2862 15.1735 16.4174 15.2259 16.5394C15.2783 16.6614 15.3545 16.7718 15.45 16.864L16.157 17.571C16.3456 17.7532 16.5982 17.854 16.8604 17.8517C17.1226 17.8494 17.3734 17.7442 17.5588 17.5588C17.7442 17.3734 17.8494 17.1226 17.8517 16.8604C17.854 16.5982 17.7532 16.3456 17.571 16.157L16.864 15.45ZM3.429 3.429C3.61653 3.24153 3.87084 3.13621 4.136 3.13621C4.40116 3.13621 4.65547 3.24153 4.843 3.429L5.55 4.136C5.73216 4.3246 5.83295 4.5772 5.83067 4.8394C5.8284 5.1016 5.72323 5.35241 5.53782 5.53782C5.35241 5.72323 5.1016 5.8284 4.8394 5.83067C4.5772 5.83295 4.3246 5.73216 4.136 5.55L3.429 4.843C3.24153 4.65547 3.13621 4.40116 3.13621 4.136C3.13621 3.87084 3.24153 3.61653 3.429 3.429ZM5.55 16.864C5.64551 16.7718 5.72169 16.6614 5.7741 16.5394C5.82651 16.4174 5.8541 16.2862 5.85525 16.1534C5.8564 16.0206 5.8311 15.8889 5.78082 15.766C5.73054 15.6432 5.65629 15.5315 5.5624 15.4376C5.4685 15.3437 5.35685 15.2695 5.23395 15.2192C5.11106 15.1689 4.97938 15.1436 4.8466 15.1447C4.71382 15.1459 4.5826 15.1735 4.4606 15.2259C4.33859 15.2783 4.22825 15.3545 4.136 15.45L3.429 16.157C3.33349 16.2492 3.25731 16.3596 3.2049 16.4816C3.15249 16.6036 3.1249 16.7348 3.12375 16.8676C3.1226 17.0004 3.1479 17.1321 3.19818 17.255C3.24846 17.3778 3.32271 17.4895 3.4166 17.5834C3.5105 17.6773 3.62215 17.7515 3.74505 17.8018C3.86794 17.8521 3.99962 17.8774 4.1324 17.8763C4.26518 17.8751 4.3964 17.8475 4.5184 17.7951C4.64041 17.7427 4.75075 17.6665 4.843 17.571L5.55 16.864ZM17.571 3.429C17.7585 3.61653 17.8638 3.87084 17.8638 4.136C17.8638 4.40116 17.7585 4.65547 17.571 4.843L16.864 5.55C16.7718 5.64551 16.6614 5.72169 16.5394 5.7741C16.4174 5.82651 16.2862 5.8541 16.1534 5.85525C16.0206 5.8564 15.8889 5.8311 15.766 5.78082C15.6432 5.73054 15.5315 5.65629 15.4376 5.5624C15.3437 5.4685 15.2695 5.35685 15.2192 5.23395C15.1689 5.11106 15.1436 4.97938 15.1447 4.8466C15.1459 4.71382 15.1735 4.5826 15.2259 4.4606C15.2783 4.33859 15.3545 4.22825 15.45 4.136L16.157 3.429C16.3445 3.24153 16.5988 3.13621 16.864 3.13621C17.1292 3.13621 17.3835 3.24153 17.571 3.429ZM5.5 10.5C5.5 9.17392 6.02678 7.90215 6.96447 6.96447C7.90215 6.02678 9.17392 5.5 10.5 5.5C11.8261 5.5 13.0979 6.02678 14.0355 6.96447C14.9732 7.90215 15.5 9.17392 15.5 10.5C15.5 11.8261 14.9732 13.0979 14.0355 14.0355C13.0979 14.9732 11.8261 15.5 10.5 15.5C9.17392 15.5 7.90215 14.9732 6.96447 14.0355C6.02678 13.0979 5.5 11.8261 5.5 10.5Z" fill="url(#paint0_linear_2411_159)"/>
<defs>
<linearGradient id="paint0_linear_2411_159" x1="20.5" y1="10.5" x2="0.5" y2="10.5" gradientUnits="userSpaceOnUse">
<stop stop-color="#00FFD1"/>
<stop offset="1" stop-color="#4723C0"/>
</linearGradient>
</defs>
</svg>
