<svg width="1546" height="969" viewBox="0 0 1546 969" fill="none" xmlns="http://www.w3.org/2000/svg">
<g filter="url(#filter0_d_2411_130)">
<path d="M492.127 506.127L53 67V930H1493V515.5H1380C1371.72 515.5 1365 522.216 1365 530.5C1365 538.784 1358.28 545.5 1350 545.5H887C878.716 545.5 872 538.784 872 530.5C872 522.216 865.284 515.5 857 515.5H514.755C506.268 515.5 498.129 512.129 492.127 506.127Z" fill="url(#paint0_linear_2411_130)" shape-rendering="crispEdges"/>
<path d="M492.127 506.127L53 67V930H1493V515.5H1380C1371.72 515.5 1365 522.216 1365 530.5C1365 538.784 1358.28 545.5 1350 545.5H887C878.716 545.5 872 538.784 872 530.5C872 522.216 865.284 515.5 857 515.5H514.755C506.268 515.5 498.129 512.129 492.127 506.127Z" fill="url(#paint1_linear_2411_130)" fill-opacity="0.5" shape-rendering="crispEdges"/>
</g>
<defs>
<filter id="filter0_d_2411_130" x="0.700001" y="0.700001" width="1544.6" height="967.6" filterUnits="userSpaceOnUse" color-interpolation-filters="sRGB">
<feFlood flood-opacity="0" result="BackgroundImageFix"/>
<feColorMatrix in="SourceAlpha" type="matrix" values="0 0 0 0 0 0 0 0 0 0 0 0 0 0 0 0 0 0 127 0" result="hardAlpha"/>
<feOffset dy="-14"/>
<feGaussianBlur stdDeviation="26.15"/>
<feComposite in2="hardAlpha" operator="out"/>
<feColorMatrix type="matrix" values="0 0 0 0 0 0 0 0 0 0 0 0 0 0 0 0 0 0 0.25 0"/>
<feBlend mode="normal" in2="BackgroundImageFix" result="effect1_dropShadow_2411_130"/>
<feBlend mode="normal" in="SourceGraphic" in2="effect1_dropShadow_2411_130" result="shape"/>
</filter>
<linearGradient id="paint0_linear_2411_130" x1="773" y1="67" x2="722" y2="903" gradientUnits="userSpaceOnUse">
<stop stop-color="#0E0E0E"/>
<stop offset="0.677268"/>
<stop offset="1" stop-opacity="0"/>
</linearGradient>
<linearGradient id="paint1_linear_2411_130" x1="773" y1="114" x2="682" y2="801" gradientUnits="userSpaceOnUse">
<stop stop-color="#8467FF"/>
<stop offset="1" stop-color="#8062FF" stop-opacity="0"/>
</linearGradient>
</defs>
</svg>
