<svg width="1440" height="361" viewBox="0 0 1440 361" fill="none" xmlns="http://www.w3.org/2000/svg">
<path d="M23.5916 2.71599L137.446 64.0843C139.779 65.3417 142.387 66 145.037 66H1300.87C1305.12 66 1309.19 64.3143 1312.19 61.3137L1323.81 49.6863C1326.81 46.6857 1330.88 45 1335.13 45H1424C1432.84 45 1440 52.1634 1440 61V344.5C1440 353.337 1432.84 360.5 1424 360.5H16C7.16345 360.5 0 353.337 0 344.5V16.8004C0 4.69058 12.9316 -3.02976 23.5916 2.71599Z" fill="url(#paint0_linear_2411_118)"/>
<path d="M23.5916 2.71599L137.446 64.0843C139.779 65.3417 142.387 66 145.037 66H1300.87C1305.12 66 1309.19 64.3143 1312.19 61.3137L1323.81 49.6863C1326.81 46.6857 1330.88 45 1335.13 45H1424C1432.84 45 1440 52.1634 1440 61V344.5C1440 353.337 1432.84 360.5 1424 360.5H16C7.16345 360.5 0 353.337 0 344.5V16.8004C0 4.69058 12.9316 -3.02976 23.5916 2.71599Z" fill="url(#paint1_linear_2411_118)" fill-opacity="0.2"/>
<defs>
<linearGradient id="paint0_linear_2411_118" x1="604.5" y1="231" x2="896.461" y2="545.725" gradientUnits="userSpaceOnUse">
<stop stop-color="#0E0E0E" stop-opacity="0"/>
<stop offset="1" stop-opacity="0.7"/>
</linearGradient>
<linearGradient id="paint1_linear_2411_118" x1="1440" y1="175.25" x2="490" y2="71.5" gradientUnits="userSpaceOnUse">
<stop/>
<stop offset="1" stop-opacity="0"/>
</linearGradient>
</defs>
</svg>
