<svg width="24" height="25" viewBox="0 0 24 25" fill="none" xmlns="http://www.w3.org/2000/svg">
<path d="M11.8398 20.5C9.61784 20.5 7.72884 19.722 6.17284 18.166C4.61684 16.61 3.83918 14.7214 3.83984 12.5C3.83984 10.8534 4.31084 9.34168 5.25284 7.96502C6.19551 6.58702 7.53218 5.59602 9.26284 4.99202C9.46684 4.92068 9.64551 4.90202 9.79884 4.93602C9.95218 4.97002 10.0792 5.03635 10.1798 5.13502C10.2805 5.23368 10.3445 5.36035 10.3718 5.51502C10.3985 5.67035 10.3775 5.83335 10.3088 6.00402C10.1795 6.32202 10.0855 6.64568 10.0268 6.97502C9.96818 7.30435 9.93918 7.64602 9.93984 8.00002C9.93984 9.78202 10.5608 11.2944 11.8028 12.537C13.0455 13.779 14.5578 14.4 16.3398 14.4C16.8052 14.4 17.2308 14.3507 17.6168 14.252C18.0035 14.1534 18.3328 14.0734 18.6048 14.012C18.7502 13.9854 18.8832 13.9887 19.0038 14.022C19.1245 14.0554 19.2218 14.114 19.2958 14.198C19.3725 14.2814 19.4245 14.384 19.4518 14.506C19.4792 14.628 19.4635 14.767 19.4048 14.923C18.9282 16.5564 17.9938 17.894 16.6018 18.936C15.2098 19.978 13.6225 20.4994 11.8398 20.5Z" fill="url(#paint0_linear_2411_155)"/>
<defs>
<linearGradient id="paint0_linear_2411_155" x1="19.4649" y1="12.7098" x2="3.83984" y2="12.7098" gradientUnits="userSpaceOnUse">
<stop stop-color="#00FFD1"/>
<stop offset="1" stop-color="#4723C0"/>
</linearGradient>
</defs>
</svg>
