<svg width="339" height="89" viewBox="0 0 339 89" fill="none" xmlns="http://www.w3.org/2000/svg">
<path d="M267.492 0.5H15.9987C7.43829 0.5 0.498718 7.43959 0.498718 16V56.7412C0.498718 61.6247 2.80023 66.2227 6.70969 69.1494L28.4281 85.4082C31.1091 87.4153 34.3681 88.5 37.7171 88.5H64.7848H273.499H322.285C330.846 88.5 337.785 81.5604 337.785 73V63.8905C337.785 59.4179 335.853 55.1633 332.486 52.22L277.692 4.32941C274.868 1.86059 271.243 0.5 267.492 0.5Z" fill="url(#paint0_linear_2411_527)"/>
<path d="M267.492 0.5H15.9987C7.43829 0.5 0.498718 7.43959 0.498718 16V56.7412C0.498718 61.6247 2.80023 66.2227 6.70969 69.1494L28.4281 85.4082C31.1091 87.4153 34.3681 88.5 37.7171 88.5H64.7848H273.499H322.285C330.846 88.5 337.785 81.5604 337.785 73V63.8905C337.785 59.4179 335.853 55.1633 332.486 52.22L277.692 4.32941C274.868 1.86059 271.243 0.5 267.492 0.5Z" stroke="url(#paint1_linear_2411_527)"/>
<path d="M267.492 0.5H15.9987C7.43829 0.5 0.498718 7.43959 0.498718 16V56.7412C0.498718 61.6247 2.80023 66.2227 6.70969 69.1494L28.4281 85.4082C31.1091 87.4153 34.3681 88.5 37.7171 88.5H64.7848H273.499H322.285C330.846 88.5 337.785 81.5604 337.785 73V63.8905C337.785 59.4179 335.853 55.1633 332.486 52.22L277.692 4.32941C274.868 1.86059 271.243 0.5 267.492 0.5Z" stroke="url(#paint2_linear_2411_527)"/>
<defs>
<linearGradient id="paint0_linear_2411_527" x1="-0.0011259" y1="0.000103415" x2="353.034" y2="158.481" gradientUnits="userSpaceOnUse">
<stop stop-color="#5629EA"/>
<stop offset="1" stop-color="#00D1FF" stop-opacity="0.53"/>
</linearGradient>
<linearGradient id="paint1_linear_2411_527" x1="524.323" y1="127.37" x2="447.548" y2="-23.1989" gradientUnits="userSpaceOnUse">
<stop stop-color="#6842FF"/>
<stop offset="1" stop-color="white" stop-opacity="0"/>
</linearGradient>
<linearGradient id="paint2_linear_2411_527" x1="103.985" y1="-104.051" x2="136.93" y2="-4.70711" gradientUnits="userSpaceOnUse">
<stop stop-color="#6842FF"/>
<stop offset="1" stop-color="white" stop-opacity="0"/>
</linearGradient>
</defs>
</svg>
