<svg width="243" height="89" viewBox="0 0 243 89" fill="none" xmlns="http://www.w3.org/2000/svg">
<path d="M70.7932 88.5H227C235.561 88.5 242.5 81.5604 242.5 73V32.2589C242.5 27.3753 240.199 22.7773 236.289 19.8506L214.571 3.59178C211.89 1.58472 208.631 0.5 205.282 0.5H178.214H64.7865H16C7.43959 0.5 0.5 7.43959 0.5 16V25.1095C0.5 29.5821 2.43202 33.8367 5.79963 36.78L60.5928 84.6706C63.4175 87.1394 67.0417 88.5 70.7932 88.5Z" stroke="url(#paint0_linear_2411_503)"/>
<path d="M70.7932 88.5H227C235.561 88.5 242.5 81.5604 242.5 73V32.2589C242.5 27.3753 240.199 22.7773 236.289 19.8506L214.571 3.59178C211.89 1.58472 208.631 0.5 205.282 0.5H178.214H64.7865H16C7.43959 0.5 0.5 7.43959 0.5 16V25.1095C0.5 29.5821 2.43202 33.8367 5.79963 36.78L60.5928 84.6706C63.4175 87.1394 67.0417 88.5 70.7932 88.5Z" stroke="url(#paint1_linear_2411_503)"/>
<defs>
<linearGradient id="paint0_linear_2411_503" x1="159.054" y1="160" x2="119.17" y2="134.955" gradientUnits="userSpaceOnUse">
<stop stop-color="#6842FF"/>
<stop offset="1" stop-color="white" stop-opacity="0"/>
</linearGradient>
<linearGradient id="paint1_linear_2411_503" x1="-7.97306" y1="20" x2="158.087" y2="67.0001" gradientUnits="userSpaceOnUse">
<stop stop-color="#6842FF"/>
<stop offset="1" stop-color="white" stop-opacity="0"/>
</linearGradient>
</defs>
</svg>
