<svg width="16" height="99" viewBox="0 0 16 99" fill="none" xmlns="http://www.w3.org/2000/svg">
<path d="M7.2929 98.7071C7.68342 99.0976 8.31659 99.0976 8.70711 98.7071L15.0711 92.3431C15.4616 91.9526 15.4616 91.3195 15.0711 90.9289C14.6805 90.5384 14.0474 90.5384 13.6569 90.9289L8 96.5858L2.34315 90.9289C1.95263 90.5384 1.31946 90.5384 0.928936 90.9289C0.538412 91.3195 0.538412 91.9526 0.928936 92.3431L7.2929 98.7071ZM7 4.37114e-08L7 98L9 98L9 -4.37114e-08L7 4.37114e-08Z" fill="url(#paint0_linear_2411_180)"/>
<defs>
<linearGradient id="paint0_linear_2411_180" x1="8.5" y1="-2.18557e-08" x2="8.5" y2="98" gradientUnits="userSpaceOnUse">
<stop stop-color="#8062FF" stop-opacity="0"/>
<stop offset="1" stop-color="#D2C8FF"/>
</linearGradient>
</defs>
</svg>
